{"title":"Goon 2011 720p HDRiP AC3-5.1 x264-SiC","uid":7063452,"size":3150522746,"categoryP":"video","categoryS":"hd___movies","magnet":"?xt=urn:btih:ceaf9c1c1b6e145e78afa25de82aea49e9b05a6d&amp;dn=Goon+2011+720p+HDRiP+AC3-5.1+x264-SiC&amp;tr=udp%3A%2F%2Ftracker.openbittorrent.com%3A80&amp;tr=udp%3A%2F%2Fopen.demonii.com%3A1337&amp;tr=udp%3A%2F%2Ftracker.coppersurfer.tk%3A6969&amp;tr=udp%3A%2F%2Fexodus.desync.com%3A6969","seeders":0,"leechers":0,"uploader":"WORD7BBC","files":-1,"time":1330388567,"description":"Director: Michael Dowse\nWriters: Jay Baruchel (screenplay), Evan Goldberg (screenplay), and 2 more credits Ã‚Â»\nGenres: Comedy | Sport\nRelease Date: 6 January 2012(Ireland)See more Ã‚Â»\nUser Rating:  7.5/10 ( votes)\nLanguage: English\nCountry: USA | Canada\nRuntime: 92 min\nStoryline: Labeled an outcast by his brainy family, a bouncer overcomes long odds to lead a team of under performing misfits to semi-pro hockey glory, beating the crap out of everything that stands in his way.\nPlot Keywords: Bouncer | Team | Misfit | Hockey | One Word Title |  Ã‚Â»\nTaglines: Meet Doug, The Nicest Guy You'll Ever Fight.\nIMDB Link: http://www.imdb.com/title/tt1456635/\n\nGoon.2011.720p.HDRiP.AC3-5.1.x264-SiC\n\n General Information\n IMDB Link: http://www.imdb.com/title/tt1456635/\n Complete name: Goon.2011.720p.HDRiP.AC3-5.1.x264-SiC.mkv\n Format : Matroska\n Format version : Version 2\n File size: 2.90 GiB\n Duration : 1h 31mn\n Overall bit rate : 4 534 Kbps\n Encoded date : UTC 2012-02-26 16:49:26\n Writing application: mkvmerge v4.0.0 ('The Stars were mine') built on Jun6 2010 16:18:42\n Writing library: libebml v1.0.0 + libmatroska v1.0.0\n\n Video Information\n ID : 1\n Format : AVC\n Format/Info: Advanced Video Codec\n Format profile : &lt;a class=&quot;__cf_email__&quot; href=&quot;/cdn-cgi/l/email-protection&quot; data-cfemail=&quot;430b2a242b030f776d72&quot;&gt;[email&amp;#160;protected]&lt;/a&gt;&lt;script cf-hash='f9e31' type=&quot;text/javascript&quot;&gt;\n/* &lt;![CDATA[ */!function(){try{var t=&quot;currentScript&quot;in document?document.currentScript:function(){for(var t=document.getElementsByTagName(&quot;script&quot;),e=t.length;e--;)if(t[e].getAttribute(&quot;cf-hash&quot;))return t[e]}();if(t&amp;&amp;t.previousSibling){var e,r,n,i,c=t.previousSibling,a=c.getAttribute(&quot;data-cfemail&quot;);if(a){for(e=&quot;&quot;,r=parseInt(a.substr(0,2),16),n=2;a.length-n;n+=2)i=parseInt(a.substr(n,2),16)^r,e+=String.fromCharCode(i);e=document.createTextNode(e),c.parentNode.replaceChild(e,c)}}}catch(u){}}();/* ]]&gt; */&lt;/script&gt;\n Format settings, CABAC : Yes\n Format settings, ReFrames: 1 frame\n Codec ID : V_MPEG4/ISO/AVC\n Duration : 1h 31mn\n Bit rate : 4 200 Kbps\n Width: 1 280 pixels\n Height : 720 pixels\n Display aspect ratio : 16:9\n Frame rate : 23.976 fps\n Color space: YUV\n Chroma subsampling : 4:2:0\n Bit depth: 8 bits\n Scan type: Progressive\n Bits/(Pixel*Frame) : 0.190\n Stream size: 2.60 GiB (90%)\n Writing library: x264 core 68 r1195bm 5d75a9b\n Default: Yes\n Forced : No\n\nAudio Information\n ID : 2\n Format : AC-3\n Format/Info: Audio Coding 3\n Mode extension : CM (complete main)\n Codec ID : A_AC3\n Duration : 1h 31mn\n Bit rate mode: Constant\n Bit rate : 384 Kbps\n Channel(s) : 6 channels\n Channel positions: Front: L C R, Side: L R, LFE\n Sampling rate: 48.0 KHz\n Bit depth: 16 bits\n Compression mode : Lossy\n Stream size: 252 MiB (8%)\n Default: Yes\n Forced : No\n\nPlot\n Labeled an outcast by his brainy family, a bouncer overcomes long odds to lead a team of under performing misfits to semi-pro hockey glory, beating the crap out of everything that stands in his way.","torrent":{"xt":"urn:btih:ceaf9c1c1b6e145e78afa25de82aea49e9b05a6d","amp;dn":"Goon+2011+720p+HDRiP+AC3-5.1+x264-SiC","amp;tr":["udp%3A%2F%2Ftracker.openbittorrent.com%3A80","udp%3A%2F%2Fopen.demonii.com%3A1337","udp%3A%2F%2Ftracker.coppersurfer.tk%3A6969","udp%3A%2F%2Fexodus.desync.com%3A6969"],"infoHash":"ceaf9c1c1b6e145e78afa25de82aea49e9b05a6d","infoHashBuffer":{"type":"Buffer","data":[206,175,156,28,27,110,20,94,120,175,162,93,232,42,234,73,233,176,90,109]},"announce":[],"urlList":[]}}